<svg id="Layer_1" data-name="Layer 1" xmlns="http://www.w3.org/2000/svg" viewBox="0 0 708.974 536.68">
  <g>
    <g>
      <rect x="643.901" y="305.07" width="4.155" height="75.338" fill="#f3f5fd"></rect>
      <circle cx="643.65" cy="229.992" r="24.239" fill="#f3f5fd"></circle>
      <circle cx="657.806" cy="300.186" r="21.646" fill="#f3f5fd"></circle>
      <circle cx="632.009" cy="300.186" r="23.11" fill="#f3f5fd"></circle>
      <circle cx="660.81" cy="254.231" r="19.427" fill="#f3f5fd"></circle>
      <circle cx="645.979" cy="265.902" r="19.427" fill="#f3f5fd"></circle>
      <circle cx="669.121" cy="273.658" r="19.427" fill="#f3f5fd"></circle>
      <circle cx="621.955" cy="253.54" r="19.427" fill="#f3f5fd"></circle>
      <circle cx="621.955" cy="277.644" r="19.427" fill="#f3f5fd"></circle>
    </g>
    <g>
      <rect x="339.836" y="329.836" width="4.155" height="75.338" fill="#f3f5fd"></rect>
      <circle cx="339.585" cy="254.758" r="24.239" fill="#f3f5fd"></circle>
      <circle cx="353.742" cy="324.953" r="21.646" fill="#f3f5fd"></circle>
      <circle cx="327.944" cy="324.953" r="23.11" fill="#f3f5fd"></circle>
      <circle cx="356.745" cy="278.997" r="19.427" fill="#f3f5fd"></circle>
      <circle cx="341.914" cy="290.668" r="19.427" fill="#f3f5fd"></circle>
      <circle cx="365.056" cy="298.425" r="19.427" fill="#f3f5fd"></circle>
      <circle cx="317.89" cy="278.306" r="19.427" fill="#f3f5fd"></circle>
      <circle cx="317.89" cy="302.41" r="19.427" fill="#f3f5fd"></circle>
    </g>
    <g>
      <rect x="483.181" y="277.978" width="6.57" height="119.113" fill="#dee8f5"></rect>
      <circle cx="482.784" cy="159.275" r="38.323" fill="#8ddbe0"></circle>
      <circle cx="505.166" cy="270.256" r="34.223" fill="#8ddbe0"></circle>
      <circle cx="464.379" cy="270.256" r="36.538" fill="#8ddbe0"></circle>
      <circle cx="509.915" cy="197.598" r="30.716" fill="#8ddbe0"></circle>
      <circle cx="486.465" cy="216.05" r="30.716" fill="#8ddbe0"></circle>
      <circle cx="523.054" cy="228.314" r="30.716" fill="#8ddbe0"></circle>
      <circle cx="448.483" cy="196.506" r="30.716" fill="#8ddbe0"></circle>
      <circle cx="448.483" cy="234.616" r="30.716" fill="#8ddbe0"></circle>
    </g>
    <g>
      <rect x="104.101" y="273.224" width="4.922" height="89.245" fill="#dee8f5"></rect>
      <circle cx="103.804" cy="184.287" r="28.713" fill="#8ddbe0"></circle>
      <circle cx="120.574" cy="267.439" r="25.642" fill="#8ddbe0"></circle>
      <circle cx="90.014" cy="267.439" r="27.376" fill="#8ddbe0"></circle>
      <circle cx="124.132" cy="213" r="23.014" fill="#8ddbe0"></circle>
      <circle cx="106.562" cy="226.826" r="23.014" fill="#8ddbe0"></circle>
      <circle cx="133.976" cy="236.014" r="23.014" fill="#8ddbe0"></circle>
      <circle cx="78.104" cy="212.182" r="23.014" fill="#8ddbe0"></circle>
      <circle cx="78.104" cy="240.736" r="23.014" fill="#8ddbe0"></circle>
    </g>
    <g>
      <path d="M454.258,421.237h251.9c13.815-37.335-27.7-55.747-40.894-31.552,7.873-14.433,9.967-32.726-6.386-44.5-17.137-9.335-37.769,1.337-40.927,18.222,4.2-22.484-15.812-44.891-38.084-49.986-57.166-13.067-69.911,45.491-64.73,54.7C500.037,341.289,437.613,374.4,454.258,421.237Z" fill="#c1d8ed"></path>
      <path d="M.037,421.237h254.7c13.815-37.335-27.7-55.747-40.9-31.552,7.873-14.433,9.967-32.726-6.385-44.5-17.138-9.335-37.769,1.337-40.927,18.222,4.2-22.484-15.812-44.891-38.084-49.986-57.166-13.067-69.911,45.491-64.73,54.7C31.227,351.088.037,373.194.037,421.237Z" fill="#c1d8ed"></path>
      <path d="M364.9,421.237H517.337c11.182-8.924,11.953-29.03.363-38.008-8.934-6.92-22.439-5.069-30.835,2.128a29.77,29.77,0,0,0,.089-16.424c-2.73-9.68-8.8-19.514-18.066-23.429-23.647-9.978-40.45,10.928-43.818,22.618-6.054-8.9-19.6-13.61-28.1-7.616-10.769,7.591-10.282,19.559-1.691,28.15-11.446-2.134-20.067-.488-28,8.033C361.231,403.175,360.306,414.228,364.9,421.237Z" fill="#c1d8ed"></path>
      <path d="M377.965,421.237H223.736c-8.459-22.859,16.957-34.132,25.038-19.318-4.82-8.837-6.1-20.037,3.909-27.248,10.493-5.715,23.125.819,25.059,11.157-2.573-13.766,9.68-27.485,23.317-30.6,35-8,42.8,27.852,39.632,33.488C349.936,372.288,388.156,392.559,377.965,421.237Z" fill="#c1d8ed"></path>
    </g>
    <rect x="0.037" y="418.947" width="708.9" height="117.733" fill="#f3f5fd"></rect>
    <path d="M525.681,407.966l-.046,0c-35.772-3.183-69.469-15.894-100.153-37.781-24.509-17.483-47.155-40.824-67.309-69.374-34.281-48.562-49.684-96.075-49.836-96.549a1.5,1.5,0,0,1,2.858-.913c.15.47,15.441,47.608,49.476,95.8C392,343.506,446.1,397.875,525.9,404.975a1.5,1.5,0,0,1-.22,2.991Z" fill="#202123"></path>
    <g>
      <g>
        <path d="M285.838,39.352c.3,3.669-3.524,7.084-4.154,10.542-.652,3.577,1.686,8.121.16,11.33-1.547,3.256-6.562,4.313-8.881,7.041s-2.554,7.848-5.518,9.9c-2.921,2.022-7.782.447-11.207,1.667-3.311,1.179-6.066,5.5-9.735,5.8s-7.085-3.525-10.542-4.155c-3.577-.652-8.121,1.686-11.331.161-3.255-1.547-4.312-6.562-7.04-8.881s-7.848-2.554-9.9-5.518c-2.022-2.922-.447-7.783-1.666-11.208-1.179-3.311-5.5-6.065-5.8-9.735s3.524-7.084,4.154-10.542c.652-3.577-1.685-8.121-.16-11.33,1.547-3.256,6.562-4.313,8.881-7.041s2.554-7.848,5.518-9.9c2.921-2.022,7.782-.447,11.208-1.667,3.31-1.179,6.065-5.5,9.734-5.8s7.085,3.525,10.542,4.155c3.578.652,8.122-1.686,11.331-.161,3.256,1.547,4.312,6.563,7.04,8.882s7.849,2.553,9.9,5.517c2.022,2.922.447,7.783,1.667,11.208C281.218,32.928,285.541,35.683,285.838,39.352Z" fill="#0f1011"></path>
        <path d="M229.741,79.227c1.98-3.349,4.1-9.839,3.12-21.887l15.978-2.95s-1.8,18.8,6.21,24.837Z" fill="#FAA896"></path>
        <path d="M251.833,75.32,238.571,65.156l10.424-.1A28.72,28.72,0,0,0,251.833,75.32Z" opacity="0.15"></path>
        <path d="M223.805,49.17c1.1,6.389,4.58,12.441,10.213,14.509a40.493,40.493,0,0,0,19.353,2.633c17.489-1.419,14.066-41.185,5.77-48.917S226.474,14.534,223.5,27.45C221.959,34.13,222.757,43.089,223.805,49.17Z" fill="#FAA896"></path>
        <g>
          <circle cx="248.826" cy="42.823" r="1.448" fill="#0f1011"></circle>
          <circle cx="260.257" cy="41.896" r="1.448" fill="#0f1011"></circle>
          <path d="M262.771,38.811h-.009l-3.837-.052a.681.681,0,0,1,.008-1.361h.009l3.838.051a.681.681,0,0,1-.009,1.362Z" fill="#0f1011"></path>
          <path d="M245.7,40.2a.681.681,0,0,1-.157-1.343l3.785-.907a.681.681,0,1,1,.316,1.324l-3.784.907A.673.673,0,0,1,245.7,40.2Z" fill="#0f1011"></path>
          <path d="M249.486,54.234s5.348.569,9.1-.738c0,0-.033,3.523-4.265,3.866S249.486,54.234,249.486,54.234Z" fill="#f8fcff"></path>
        </g>
        <path d="M235.586,32.631a125.358,125.358,0,0,1-4.866,44.4S218.529,56.01,216.643,38.506c-1.767-16.409,10.332-26.085,18.5-27.9,31.048-6.914,33.282,15.766,33.282,15.766-5.656,11.762-36.2,11.711-36.2,11.711" fill="#0f1011"></path>
        <path d="M241.505,49.061a6.142,6.142,0,0,1-12.244.993,6.041,6.041,0,0,1,5.626-6.619C239.264,43.3,241.231,45.68,241.505,49.061Z" fill="#FAA896"></path>
        <g opacity="0.15">
          <path d="M255.251,50.865a.5.5,0,0,1-.146-.978l2.947-.9L256,44.393a.5.5,0,1,1,.913-.409l2.288,5.109a.5.5,0,0,1-.31.682L255.4,50.843A.493.493,0,0,1,255.251,50.865Z"></path>
        </g>
      </g>
      <path d="M202.026,202.8l-.38.333,1.632-5.663-12.3.515s-16.683,19.4-5.67,24.877c5.266,2.618,7.156-9.152,10.747-12.528.035,2.246.266,5.313,1.265,5.32C199.953,215.666,201.2,205.659,202.026,202.8Z" fill="#FAA896"></path>
      <rect x="164.059" y="137.863" width="132.376" height="21.802" transform="translate(-19.339 262.13) rotate(-57.295)" fill="#C9B0B0"></rect>
      <path d="M338.123,483.217l-20.852-2.481c.939-7.891,2-17.371,2.072-18.925,0,.1,0,.181,0,.245h21C340.336,462.686,340.336,464.6,338.123,483.217Z" fill="#FAA896"></path>
      <path d="M124.491,471.353l-18.409-10.1s10.431-19.008,11.35-20.695L135.873,450.6C134.952,452.288,124.491,471.353,124.491,471.353Z" fill="#FAA896"></path>
      <path d="M288.536,339.411c6.947,45.779,14.954,93.636,20.518,139.428l36.639-5.136c-7.857-47.38-13.547-97.4-20.628-144.951-14.954-43.438-52.559-139.423-52.559-139.423l-76.068-4.7s-14.765,114.041-20.381,150.455L106.04,449.955l31.283,19.751,76.041-116.338a19.474,19.474,0,0,0,2.794-7c.17-.886,5.343-29.243,5.488-29.972,5.1-26.575,18.129-82.611,18.129-82.611C256.034,268.918,274.755,303.933,288.536,339.411Z" fill="#262626"></path>
      <path d="M143.024,490.692a4.108,4.108,0,0,0,5.7-1.938h0a4.109,4.109,0,0,0-.647-4.371l-17.549-18.877a3.466,3.466,0,0,0-2.676-1.093,19.1,19.1,0,0,1-11.7-2.5,17.025,17.025,0,0,1-6.205-7.047,1.547,1.547,0,0,0-2.794-.154l-5.715,10.5a2.677,2.677,0,0,0,1.081,3.637Z" fill="#c1d8ed"></path>
      <path d="M363.706,493.848a4.108,4.108,0,0,0,4.076-4.427h0a4.106,4.106,0,0,0-2.658-3.528l-24.441-8.186a3.458,3.458,0,0,0-2.871.319,19.111,19.111,0,0,1-11.467,3.4,17.035,17.035,0,0,1-8.82-3.222,1.546,1.546,0,0,0-2.527,1.2v11.951a2.678,2.678,0,0,0,2.689,2.678Z" fill="#c1d8ed"></path>
      <path d="M313.992,197.3c-.69-.689-2.156-1.528-2.37-1.748.571-.21,2.3-.02,3.374-.4.98-.35,1.477-1.66-.086-3.223-1.969-1.969-12.064-5.26-12.064-5.26l-8.1,10.848s16.208,18.9,22.338,16.169C324.816,210.243,317.6,200.911,313.992,197.3Z" fill="#FAA896"></path>
      <path d="M311.191,188.164,276.3,152.353c.054-2.094.149-4.3.306-6.655,1.827-27.679,18.436-64.587-14.614-67.818-.627-.064-1.634-.139-2.931-.23-.559,5.477-34.564,3.606-34.978-2.034-9.605-.513-17.643,2-22.455,6.318-16.58,14.869,1.26,42.717.119,63.684s-11.139,29.855-11.026,40.656c.178,16.973,82.595,17.455,87.3,8.067a14.273,14.273,0,0,0,1.508-7.431l16.043,16.468Z" fill="#C9B0B0"></path>
      <path d="M259.063,77.65c-.559,5.477-3.984,13.392-13.233,13.5-12.324.141-21.331-9.893-21.745-15.533h.03C236.206,76.276,252.02,77.157,259.063,77.65Z" fill="#FAA896"></path>
    </g>
    <g>
      <circle cx="551.155" cy="430.518" r="4.674" fill="#fd5d76"></circle>
      <g>
        <path d="M469.373,453.893s-8.9,15.9-17.488,18.441c-8.407,2.491,1.961,25.457,1.961,25.457h-7.52s-8.25-19.873-8.25-26.56c0-3.713,3.947-3.446,4.906-8.309.769-3.893-.476-15.547-3.179-18.25" fill="#c1d8ed"></path>
        <path d="M534.236,444.672s-7.949,22.575-9.857,28.3l4.929,22.559-5.693,1.7s-8.139-20.1-8.139-26,2.544-24.347,2.544-24.347Z" fill="#c1d8ed"></path>
        <path d="M415.019,499.439h-5.352a3.352,3.352,0,1,1,0-6.7h5.352a3.352,3.352,0,0,1,0,6.7Z" fill="#fff"></path>
        <path d="M532.116,499.439h-5.352a3.352,3.352,0,1,1,0-6.7h5.352a3.352,3.352,0,0,1,0,6.7Z" fill="#c1d8ed"></path>
        <path d="M454.561,499.439h-5.352a3.352,3.352,0,1,1,0-6.7h5.352a3.352,3.352,0,1,1,0,6.7Z" fill="#c1d8ed"></path>
        <path d="M586.169,398.118c-9.211,0-10.5-9.933-14.409-15.728-8.908-13.206-35.3-8.343-40.408,3.2-2.839,6.417-8.2,19.626-10.339,21.21-3.91,2.894-12.281,3.076-25.78,1.936-30.26-2.558-45.8-9.39-59.961.161-18.312,2.7-20.763-21.227-26.488-30.788-2.1-3.5-6.084-.534-6.182,3.546-.246,10.228,5.041,37.052,24.658,34.98-.627,1.4-1.131,2.679-1.524,3.85-1.35,3.278-4.374,12.2-4.374,26.4,0,11.778-5.586,10.944-10.175,12.077-6.439,1.59-10.423,24.223-4.064,38.83h8.267c-2.5.012-7.316-18.092-.4-28.619,5.524-8.414,27.724,6.3,36.468-18.867,18.485,6.828,48.964,10.6,67.967,6.232,3.507,4.69,9.087,12.322,9.667,14.173.882,2.815-14.255,9.255-14.255,9.255l3.5,5.723c2.862-1.5,20.2-9.4,20.2-13.936,0-4.2-3.518-14.125-6.127-20.909,18.754-13.691,12.173-36.321,40.784-31.775,12.56,2,24.96-2.628,29.778-10.82C607.737,400.13,597.668,398.118,586.169,398.118Z" fill="#fff"></path>
        <path d="M517.688,491.479a3.351,3.351,0,0,1-3.055-1.97l-2.209-4.875a3.352,3.352,0,0,1,6.106-2.767l2.209,4.876a3.354,3.354,0,0,1-3.051,4.736Z" fill="#fff"></path>
        <path d="M546.347,375.386c8.978,0,10.193,12.327,6.012,19.155-4.773,7.794-26.247,13.116-35.778,9.3s-3.388-12.351,9.7-19.346S539.857,375.386,546.347,375.386Z" fill="#202123"></path>
        <path d="M595.043,405.238c.542,2.541,3.583,3.967,6.728,4.771a16.615,16.615,0,0,0,1.194-1.761c3.346-5.692-.609-8.385-7.233-9.476A9.639,9.639,0,0,0,595.043,405.238Z" fill="#202123"></path>
        <circle cx="571.079" cy="392.434" r="2.106" fill="#202123"></circle>
      </g>
      <path d="M547.458,427.524c-21.439,0-28.168-18.682-28.237-18.881a2.141,2.141,0,0,1,4.044-1.406h0c.258.733,6.577,17.935,27.678,15.828a2.141,2.141,0,1,1,.425,4.26C550.014,427.46,548.71,427.524,547.458,427.524Z" fill="#202123"></path>
      <path d="M513.683,457.572c-16.67,2.268-39.161-.291-55.727-5.129.762-2.8,3.056-6.327,9.58-7.774,11.618-2.568,10.274-12.551,21.892-12.551,8.6,0,7.277,8,13.955,12.551C509.513,448.847,513.066,453.753,513.683,457.572Z" fill="#202123"></path>
      <path d="M420.739,403.334a14.1,14.1,0,0,1-10.753,4.752c-5.7-8.253-7.526-20.308-7.381-26.429.095-4.076,4.084-7.047,6.182-3.545C412.443,384.216,414.763,396.185,420.739,403.334Z" fill="#202123"></path>
      <path d="M482.724,413.925c-2.859,6.789-9.751,7.106-13.347,3.5s-9.17-.608-14.812-6.25a11.231,11.231,0,0,1-3.416-7.158c8.57-.334,18.716,1.747,32.226,3.459A11.946,11.946,0,0,1,482.724,413.925Z" fill="#202123"></path>
      <path d="M438.076,435.192c0,5.06-5.291,5.394-8.647,8.741-2.355,2.355-4.238,5.137-8.185,5.711.077-.831.12-1.747.12-2.757a79.191,79.191,0,0,1,2.739-21.618c2.072-.882,4.033-1,5.274.574C434.54,432.375,438.076,430.517,438.076,435.192Z" fill="#202123"></path>
    </g>
  </g>
</svg>