<svg xmlns="http://www.w3.org/2000/svg" xmlns:xlink="http://www.w3.org/1999/xlink" width="1920" zoomAndPan="magnify" viewBox="0 0 1440 959.999988" height="1280" preserveAspectRatio="xMidYMid meet" version="1.0"><defs><clipPath id="id1"><path d="M 844 669 L 1076 669 L 1076 884 L 844 884 Z M 844 669 " clip-rule="nonzero"/></clipPath><clipPath id="id2"><path d="M 801.152344 794.207031 L 944.777344 621.988281 L 1107.207031 757.445312 L 963.582031 929.667969 Z M 801.152344 794.207031 " clip-rule="nonzero"/></clipPath><clipPath id="id3"><path d="M 801.152344 794.207031 L 944.777344 621.988281 L 1107.207031 757.445312 L 963.582031 929.667969 Z M 801.152344 794.207031 " clip-rule="nonzero"/></clipPath><clipPath id="id4"><path d="M 872 283 L 1104 283 L 1104 498 L 872 498 Z M 872 283 " clip-rule="nonzero"/></clipPath><clipPath id="id5"><path d="M 828.628906 406.957031 L 973.203125 235.53125 L 1134.878906 371.886719 L 990.304688 543.3125 Z M 828.628906 406.957031 " clip-rule="nonzero"/></clipPath><clipPath id="id6"><path d="M 828.628906 406.957031 L 973.203125 235.53125 L 1134.878906 371.886719 L 990.304688 543.3125 Z M 828.628906 406.957031 " clip-rule="nonzero"/></clipPath><clipPath id="id7"><path d="M 1177 669 L 1409 669 L 1409 884 L 1177 884 Z M 1177 669 " clip-rule="nonzero"/></clipPath><clipPath id="id8"><path d="M 1134.011719 794.207031 L 1277.636719 621.988281 L 1440.066406 757.445312 L 1296.441406 929.667969 Z M 1134.011719 794.207031 " clip-rule="nonzero"/></clipPath><clipPath id="id9"><path d="M 1134.011719 794.207031 L 1277.636719 621.988281 L 1440.066406 757.445312 L 1296.441406 929.667969 Z M 1134.011719 794.207031 " clip-rule="nonzero"/></clipPath><clipPath id="id10"><path d="M 457 437 L 689 437 L 689 651 L 457 651 Z M 457 437 " clip-rule="nonzero"/></clipPath><clipPath id="id11"><path d="M 414.054688 561.765625 L 557.484375 389.378906 L 720.066406 524.652344 L 576.640625 697.039062 Z M 414.054688 561.765625 " clip-rule="nonzero"/></clipPath><clipPath id="id12"><path d="M 414.054688 561.765625 L 557.484375 389.378906 L 720.066406 524.652344 L 576.640625 697.039062 Z M 414.054688 561.765625 " clip-rule="nonzero"/></clipPath><clipPath id="id13"><path d="M 440 83 L 672 83 L 672 298 L 440 298 Z M 440 83 " clip-rule="nonzero"/></clipPath><clipPath id="id14"><path d="M 396.785156 207.523438 L 541.359375 36.097656 L 703.039062 172.453125 L 558.464844 343.875 Z M 396.785156 207.523438 " clip-rule="nonzero"/></clipPath><clipPath id="id15"><path d="M 396.785156 207.523438 L 541.359375 36.097656 L 703.039062 172.453125 L 558.464844 343.875 Z M 396.785156 207.523438 " clip-rule="nonzero"/></clipPath><clipPath id="id16"><path d="M 103 83 L 335 83 L 335 298 L 103 298 Z M 103 83 " clip-rule="nonzero"/></clipPath><clipPath id="id17"><path d="M 59.863281 207.523438 L 204.4375 36.097656 L 366.113281 172.453125 L 221.539062 343.875 Z M 59.863281 207.523438 " clip-rule="nonzero"/></clipPath><clipPath id="id18"><path d="M 59.863281 207.523438 L 204.4375 36.097656 L 366.113281 172.453125 L 221.539062 343.875 Z M 59.863281 207.523438 " clip-rule="nonzero"/></clipPath></defs><rect x="-144" width="1728" fill="#ffffff" y="-95.999999" height="1151.999986" fill-opacity="1"/><rect x="-144" width="1728" fill="#ffffff" y="-95.999999" height="1151.999986" fill-opacity="1"/><rect x="-144" width="1728" fill="#ffffff" y="-95.999999" height="1151.999986" fill-opacity="1"/><rect x="-144" width="1728" fill="#ffffff" y="-95.999999" height="1151.999986" fill-opacity="1"/><g clip-path="url(#id1)"><g clip-path="url(#id2)"><g clip-path="url(#id3)"><path fill="#f6f6f6" d="M 898.457031 677.855469 C 898.167969 678.210938 897.882812 678.585938 897.613281 678.96875 C 888.183594 695.273438 896.714844 715.675781 909.050781 727.890625 C 919.722656 739.605469 939.652344 747.210938 953.398438 736.222656 C 955.363281 734.605469 956.863281 732.46875 957.917969 730.167969 C 965.875 709.761719 952.949219 686.882812 935.390625 676.148438 C 924.730469 668.394531 907.398438 666.851562 898.457031 677.855469 Z M 848.699219 738.832031 C 841.523438 747.878906 844.75 762.277344 852.027344 770.726562 C 866.292969 787.640625 893.433594 797.363281 913.273438 784.335938 C 914.992188 783 916.4375 781.339844 917.558594 779.476562 C 925.425781 766.050781 916.382812 750.039062 905.304688 741.636719 C 890.941406 730.257812 868.574219 724.003906 852.429688 735.324219 C 850.960938 736.363281 849.726562 737.542969 848.703125 738.835938 Z M 978.839844 679.410156 C 966.96875 695.507812 973.492188 718.773438 986.523438 732.179688 C 995.128906 742.796875 1013.484375 748.792969 1024.109375 737.71875 C 1037.582031 721.160156 1029.398438 695.375 1014.722656 682.347656 C 1005.625 673 988.632812 668.785156 978.839844 679.410156 Z M 870.304688 816.453125 C 864.808594 822.929688 863.363281 832.601562 868.210938 840.261719 C 881.199219 860.734375 913.179688 868.039062 932.574219 852.359375 C 940.457031 845.636719 940.183594 833.726562 934.5625 825.746094 C 922.511719 808.707031 897.46875 802.171875 878.492188 810.632812 C 875.238281 811.871094 872.457031 813.921875 870.308594 816.453125 Z M 959.425781 774.222656 C 948.785156 787.035156 944.441406 805.433594 947.191406 821.769531 C 950.984375 840.097656 957.972656 858.347656 969.785156 873.058594 C 977.101562 885.066406 995.453125 886.988281 1004.640625 876.113281 C 1015.976562 863.261719 1016.378906 844.425781 1026.617188 830.785156 C 1034.179688 818.277344 1048.238281 813.152344 1060.335938 806.324219 C 1071.050781 800.855469 1079.449219 787.957031 1073.929688 776 C 1067.460938 764.820312 1053.339844 761.558594 1041.601562 758.820312 C 1021.097656 756.109375 999.40625 753.429688 979.421875 760.351562 C 971.320312 763.046875 964.621094 767.96875 959.425781 774.222656 Z M 959.425781 774.222656 " fill-opacity="1" fill-rule="nonzero"/></g></g></g><g clip-path="url(#id4)"><g clip-path="url(#id5)"><g clip-path="url(#id6)"><path fill="#f6f6f6" d="M 926.570312 291.144531 C 926.28125 291.496094 925.996094 291.871094 925.722656 292.25 C 916.203125 308.503906 924.621094 328.953125 936.890625 341.238281 C 947.496094 353.007812 967.382812 360.726562 981.191406 349.8125 C 983.164062 348.207031 984.675781 346.078125 985.746094 343.78125 C 993.8125 323.421875 981.011719 300.46875 963.511719 289.636719 C 952.898438 281.828125 935.574219 280.191406 926.570312 291.144531 Z M 876.480469 351.84375 C 869.253906 360.851562 872.402344 375.265625 879.628906 383.753906 C 893.800781 400.75 920.890625 410.621094 940.800781 397.703125 C 942.527344 396.375 943.980469 394.722656 945.113281 392.867188 C 953.054688 379.484375 944.097656 363.421875 933.066406 354.960938 C 918.765625 343.503906 896.4375 337.125 880.226562 348.355469 C 878.753906 349.386719 877.511719 350.558594 876.480469 351.84375 Z M 1006.945312 293.140625 C 994.984375 309.171875 1001.382812 332.472656 1014.335938 345.953125 C 1022.882812 356.617188 1041.207031 362.714844 1051.894531 351.699219 C 1065.453125 335.214844 1057.414062 309.382812 1042.808594 296.277344 C 1033.765625 286.878906 1016.796875 282.570312 1006.945312 293.140625 Z M 897.652344 429.582031 C 892.121094 436.027344 890.625 445.691406 895.429688 453.378906 C 908.304688 473.925781 940.246094 481.40625 959.726562 465.832031 C 967.644531 459.152344 967.4375 447.242188 961.859375 439.230469 C 949.902344 422.125 924.894531 415.449219 905.875 423.804688 C 902.613281 425.03125 899.820312 427.0625 897.65625 429.585938 Z M 987.007812 387.847656 C 976.296875 400.597656 971.851562 418.972656 974.507812 435.324219 C 978.203125 453.675781 985.089844 471.960938 996.820312 486.738281 C 1004.074219 498.785156 1022.410156 500.808594 1031.660156 489.984375 C 1043.066406 477.195312 1043.570312 458.363281 1053.886719 444.78125 C 1061.519531 432.3125 1075.605469 427.265625 1087.738281 420.503906 C 1098.484375 415.097656 1106.953125 402.242188 1101.5 390.253906 C 1095.09375 379.039062 1080.992188 375.699219 1069.265625 372.898438 C 1048.78125 370.070312 1027.105469 367.273438 1007.082031 374.085938 C 998.960938 376.734375 992.238281 381.617188 987.007812 387.847656 Z M 987.007812 387.847656 " fill-opacity="1" fill-rule="nonzero"/></g></g></g><g clip-path="url(#id7)"><g clip-path="url(#id8)"><g clip-path="url(#id9)"><path fill="#f6f6f6" d="M 1231.316406 677.855469 C 1231.027344 678.210938 1230.746094 678.585938 1230.472656 678.96875 C 1221.042969 695.273438 1229.574219 715.675781 1241.914062 727.890625 C 1252.582031 739.605469 1272.511719 747.210938 1286.257812 736.222656 C 1288.226562 734.605469 1289.722656 732.46875 1290.777344 730.167969 C 1298.734375 709.761719 1285.808594 686.882812 1268.25 676.148438 C 1257.589844 668.394531 1240.257812 666.851562 1231.316406 677.855469 Z M 1181.558594 738.832031 C 1174.386719 747.878906 1177.613281 762.277344 1184.886719 770.726562 C 1199.152344 787.640625 1226.292969 797.363281 1246.132812 784.335938 C 1247.851562 783 1249.296875 781.339844 1250.417969 779.476562 C 1258.285156 766.050781 1249.242188 750.039062 1238.164062 741.636719 C 1223.800781 730.257812 1201.4375 724.003906 1185.289062 735.324219 C 1183.820312 736.363281 1182.585938 737.542969 1181.5625 738.835938 Z M 1311.699219 679.410156 C 1299.828125 695.507812 1306.351562 718.773438 1319.382812 732.179688 C 1327.988281 742.796875 1346.34375 748.792969 1356.96875 737.71875 C 1370.441406 721.160156 1362.257812 695.375 1347.582031 682.347656 C 1338.484375 673 1321.492188 668.785156 1311.699219 679.410156 Z M 1203.164062 816.453125 C 1197.667969 822.929688 1196.222656 832.601562 1201.074219 840.261719 C 1214.058594 860.734375 1246.039062 868.039062 1265.4375 852.359375 C 1273.316406 845.636719 1273.042969 833.726562 1267.421875 825.746094 C 1255.371094 808.707031 1230.328125 802.171875 1211.351562 810.632812 C 1208.097656 811.871094 1205.316406 813.921875 1203.167969 816.453125 Z M 1292.285156 774.222656 C 1281.648438 787.035156 1277.300781 805.433594 1280.050781 821.769531 C 1283.84375 840.097656 1290.832031 858.347656 1302.644531 873.058594 C 1309.964844 885.066406 1328.3125 886.988281 1337.503906 876.113281 C 1348.839844 863.261719 1349.238281 844.425781 1359.476562 830.785156 C 1367.042969 818.277344 1381.097656 813.152344 1393.195312 806.324219 C 1403.914062 800.855469 1412.3125 787.957031 1406.789062 776 C 1400.320312 764.820312 1386.203125 761.558594 1374.460938 758.820312 C 1353.957031 756.109375 1332.265625 753.429688 1312.285156 760.351562 C 1304.179688 763.046875 1297.480469 767.96875 1292.285156 774.222656 Z M 1292.285156 774.222656 " fill-opacity="1" fill-rule="nonzero"/></g></g></g><g clip-path="url(#id10)"><g clip-path="url(#id11)"><g clip-path="url(#id12)"><path fill="#f6f6f6" d="M 511.226562 445.300781 C 510.9375 445.65625 510.652344 446.03125 510.382812 446.414062 C 500.972656 462.730469 509.527344 483.125 521.878906 495.324219 C 532.5625 507.027344 552.5 514.609375 566.234375 503.605469 C 568.199219 501.984375 569.695312 499.847656 570.746094 497.542969 C 578.679688 477.128906 565.726562 454.265625 548.15625 443.550781 C 537.488281 435.808594 520.152344 434.289062 511.222656 445.300781 Z M 461.539062 506.335938 C 454.375 515.390625 457.617188 529.78125 464.902344 538.222656 C 479.1875 555.121094 506.339844 564.816406 526.164062 551.765625 C 527.878906 550.425781 529.324219 548.765625 530.445312 546.898438 C 538.296875 533.464844 529.230469 517.460938 518.148438 509.074219 C 503.769531 497.714844 481.398438 491.484375 465.265625 502.820312 C 463.796875 503.863281 462.5625 505.042969 461.539062 506.335938 Z M 591.609375 446.761719 C 579.757812 462.875 586.308594 486.132812 599.351562 499.523438 C 607.972656 510.132812 626.332031 516.105469 636.949219 505.023438 C 650.398438 488.445312 642.1875 462.671875 627.496094 449.660156 C 618.386719 440.324219 601.390625 436.128906 591.609375 446.761719 Z M 483.230469 583.929688 C 477.742188 590.414062 476.308594 600.085938 481.167969 607.742188 C 494.175781 628.199219 526.167969 635.46875 545.542969 619.765625 C 553.417969 613.035156 553.128906 601.125 547.5 593.148438 C 535.429688 576.125 510.378906 569.617188 491.414062 578.097656 C 488.160156 579.34375 485.382812 581.394531 483.234375 583.933594 Z M 572.304688 541.601562 C 561.679688 554.421875 557.355469 572.828125 560.125 589.160156 C 563.9375 607.484375 570.945312 625.726562 582.777344 640.421875 C 590.109375 652.421875 608.460938 654.324219 617.636719 643.4375 C 628.957031 630.574219 629.335938 611.738281 639.558594 598.085938 C 647.109375 585.570312 661.160156 580.425781 673.25 573.585938 C 683.960938 568.105469 692.34375 555.195312 686.8125 543.242188 C 680.328125 532.070312 666.207031 528.828125 654.460938 526.101562 C 633.957031 523.414062 612.261719 520.761719 592.285156 527.703125 C 584.183594 530.410156 577.492188 535.335938 572.304688 541.601562 Z M 572.304688 541.601562 " fill-opacity="1" fill-rule="nonzero"/></g></g></g><g clip-path="url(#id13)"><g clip-path="url(#id14)"><g clip-path="url(#id15)"><path fill="#f6f6f6" d="M 494.730469 91.710938 C 494.441406 92.0625 494.15625 92.4375 493.882812 92.816406 C 484.363281 109.070312 492.78125 129.519531 505.050781 141.804688 C 515.65625 153.574219 535.542969 161.292969 549.347656 150.378906 C 551.324219 148.773438 552.835938 146.644531 553.902344 144.347656 C 561.972656 123.988281 549.171875 101.035156 531.671875 90.203125 C 521.058594 82.394531 503.730469 80.757812 494.730469 91.710938 Z M 444.636719 152.410156 C 437.414062 161.417969 440.5625 175.832031 447.789062 184.320312 C 461.960938 201.316406 489.050781 211.1875 508.960938 198.269531 C 510.683594 196.941406 512.140625 195.289062 513.273438 193.433594 C 521.214844 180.050781 512.257812 163.988281 501.226562 155.527344 C 486.925781 144.070312 464.597656 137.691406 448.386719 148.921875 C 446.914062 149.953125 445.671875 151.125 444.640625 152.410156 Z M 575.105469 93.707031 C 563.144531 109.738281 569.539062 133.039062 582.496094 146.519531 C 591.042969 157.183594 609.363281 163.28125 620.050781 152.265625 C 633.613281 135.78125 625.574219 109.949219 610.96875 96.84375 C 601.921875 87.445312 584.953125 83.136719 575.105469 93.707031 Z M 465.8125 230.148438 C 460.28125 236.59375 458.78125 246.257812 463.589844 253.945312 C 476.464844 274.488281 508.402344 281.972656 527.886719 266.398438 C 535.804688 259.71875 535.597656 247.808594 530.019531 239.792969 C 518.0625 222.691406 493.054688 216.015625 474.035156 224.371094 C 470.773438 225.597656 467.980469 227.628906 465.816406 230.148438 Z M 555.167969 188.414062 C 544.457031 201.164062 540.007812 219.539062 542.667969 235.890625 C 546.363281 254.238281 553.246094 272.527344 564.980469 287.304688 C 572.230469 299.351562 590.570312 301.375 599.820312 290.550781 C 611.226562 277.761719 611.730469 258.929688 622.042969 245.34375 C 629.679688 232.878906 643.761719 227.832031 655.898438 221.070312 C 666.644531 215.660156 675.113281 202.808594 669.660156 190.820312 C 663.253906 179.605469 649.152344 176.265625 637.425781 173.464844 C 616.9375 170.636719 595.261719 167.839844 575.242188 174.652344 C 567.121094 177.300781 560.398438 182.183594 555.167969 188.414062 Z M 555.167969 188.414062 " fill-opacity="1" fill-rule="nonzero"/></g></g></g><g clip-path="url(#id16)"><g clip-path="url(#id17)"><g clip-path="url(#id18)"><path fill="#f6f6f6" d="M 157.804688 91.710938 C 157.515625 92.0625 157.230469 92.4375 156.957031 92.816406 C 147.4375 109.070312 155.855469 129.519531 168.125 141.804688 C 178.734375 153.574219 198.617188 161.292969 212.425781 150.378906 C 214.402344 148.773438 215.910156 146.644531 216.980469 144.347656 C 225.046875 123.988281 212.25 101.035156 194.75 90.203125 C 184.132812 82.394531 166.808594 80.757812 157.804688 91.710938 Z M 107.714844 152.410156 C 100.488281 161.417969 103.636719 175.832031 110.863281 184.320312 C 125.035156 201.316406 152.125 211.1875 172.035156 198.269531 C 173.761719 196.941406 175.214844 195.289062 176.347656 193.433594 C 184.289062 180.050781 175.332031 163.988281 164.304688 155.527344 C 150 144.070312 127.671875 137.691406 111.464844 148.921875 C 109.988281 149.953125 108.746094 151.125 107.714844 152.410156 Z M 238.179688 93.707031 C 226.21875 109.738281 232.617188 133.039062 245.570312 146.519531 C 254.117188 157.183594 272.441406 163.28125 283.128906 152.265625 C 296.6875 135.78125 288.648438 109.949219 274.046875 96.84375 C 265 87.445312 248.03125 83.136719 238.179688 93.707031 Z M 128.890625 230.148438 C 123.355469 236.59375 121.859375 246.257812 126.667969 253.945312 C 139.539062 274.488281 171.480469 281.972656 190.960938 266.398438 C 198.878906 259.71875 198.671875 247.808594 193.097656 239.792969 C 181.136719 222.691406 156.132812 216.015625 137.109375 224.371094 C 133.847656 225.597656 131.058594 227.628906 128.890625 230.148438 Z M 218.242188 188.414062 C 207.535156 201.164062 203.085938 219.539062 205.746094 235.890625 C 209.4375 254.238281 216.324219 272.527344 228.054688 287.304688 C 235.308594 299.351562 253.644531 301.375 262.894531 290.550781 C 274.300781 277.761719 274.804688 258.929688 285.121094 245.34375 C 292.753906 232.878906 306.839844 227.832031 318.972656 221.070312 C 329.71875 215.660156 338.191406 202.808594 332.734375 190.820312 C 326.328125 179.605469 312.226562 176.265625 300.5 173.464844 C 280.015625 170.636719 258.339844 167.839844 238.316406 174.652344 C 230.199219 177.300781 223.472656 182.183594 218.242188 188.414062 Z M 218.242188 188.414062 " fill-opacity="1" fill-rule="nonzero"/></g></g></g></svg>