<svg xmlns="http://www.w3.org/2000/svg" xmlns:xlink="http://www.w3.org/1999/xlink" version="1.1" id="Layer_1" x="0px" y="0px" viewBox="0 0 500 500" style="enable-background:new 0 0 500 500;" xml:space="preserve">
<style xmlns="http://www.w3.org/2000/svg" type="text/css">
	.st0{fill:#3ec3b5;}
</style>
<g xmlns="http://www.w3.org/2000/svg">
	<g>
		<path class="st0" d="M355.87,500H144.13c-37.56,0-68.12-30.56-68.12-68.12v-222.2c0-37.56,30.56-68.12,68.12-68.12h211.74    c37.56,0,68.12,30.56,68.12,68.12v222.2C423.99,469.44,393.43,500,355.87,500z M144.13,173.84c-19.76,0-35.84,16.08-35.84,35.84    v222.2c0,19.76,16.08,35.84,35.84,35.84h211.74c19.76,0,35.84-16.08,35.84-35.84v-222.2c0-19.76-16.08-35.84-35.84-35.84    L144.13,173.84L144.13,173.84z"/>
	</g>
	<g>
		<path class="st0" d="M347.89,161.24h-32.28V69.16c0-19.76-20.45-35.84-45.59-35.84h-40.04c-25.14,0-45.59,16.08-45.59,35.84v92.07    h-32.28V69.16c0-37.56,34.93-68.12,77.87-68.12h40.04c42.94,0,77.87,30.56,77.87,68.12V161.24z"/>
	</g>
	<g>
		<path class="st0" d="M278.1,394.46h-56.2c-6.95,0-13.48-3.4-17.47-9.09s-4.95-12.98-2.58-19.51l14.24-39.32    c-8.31-8.69-13.1-20.32-13.1-32.41c0-25.93,21.09-47.02,47.02-47.02s47.02,21.09,47.02,47.02c0,12.09-4.79,23.72-13.1,32.41    l14.25,39.33c2.36,6.53,1.39,13.83-2.6,19.51C291.58,391.06,285.05,394.46,278.1,394.46z M250,268.62    c-14.06,0-25.5,11.44-25.5,25.5c0,8.14,3.84,15.62,10.54,20.52l6.51,4.76l-19.48,53.77l55.76-0.25l-19.39-53.53l6.51-4.76    c6.7-4.9,10.54-12.38,10.54-20.52C275.5,280.07,264.07,268.62,250,268.62z"/>
	</g>
</g>
</svg>