<svg id="Layer_1" data-name="Layer 1" xmlns="http://www.w3.org/2000/svg" viewBox="0 0 900.037 680.72">
  <rect x="244.457" y="103.367" width="504.783" height="547.857" fill="#fff" opacity="0.1"></rect>
  <rect x="244.457" y="103.367" width="504.783" height="547.857" fill="#3EC3B5" opacity="0.2"></rect>
  <rect x="268.264" y="126.85" width="457.168" height="427.168" fill="#fff"></rect>
  <g>
    <circle cx="444.884" cy="35.399" r="35.399" fill="#3EC3B5"></circle>
    <circle cx="444.884" cy="35.399" r="35.399" fill="#fff" opacity="0.68"></circle>
    <path d="M463.948,21.447c-5.035-5.248-13.371-4.068-18.619.966l-.331.331-.356-.357c-5.139-5.146-13.477-6.506-18.624-1.367a13.17,13.17,0,0,0-.013,18.624l18.982,18.644a.078.078,0,0,0,.11,0l18.851-18.609A13.169,13.169,0,0,0,463.948,21.447Z" fill="#fff"></path>
  </g>
  <polygon points="715.719 577.858 715.719 629.162 695.434 608.888 675.149 629.162 675.149 577.858 715.719 577.858" fill="#fff"></polygon>
  <g>
    <circle cx="419.787" cy="575.212" r="35.399" fill="#3EC3B5"></circle>
    <circle cx="419.787" cy="575.212" r="35.399" fill="#fff" opacity="0.68"></circle>
    <path d="M438.85,561.26c-5.034-5.249-13.37-4.068-18.619.966l-.33.33-.356-.356c-5.14-5.147-13.478-6.506-18.624-1.367a13.17,13.17,0,0,0-.013,18.624L419.89,598.1a.078.078,0,0,0,.11,0l18.85-18.608A13.167,13.167,0,0,0,438.85,561.26Z" fill="#fff"></path>
  </g>
  <g>
    <circle cx="330.828" cy="298.042" r="35.399" fill="#3EC3B5"></circle>
    <circle cx="330.828" cy="298.042" r="35.399" fill="#fff" opacity="0.68"></circle>
    <path d="M349.891,284.09c-5.034-5.249-13.37-4.068-18.619.966l-.33.331-.356-.357c-5.139-5.146-13.477-6.506-18.624-1.367a13.17,13.17,0,0,0-.013,18.624l18.982,18.644a.078.078,0,0,0,.11,0l18.85-18.609A13.167,13.167,0,0,0,349.891,284.09Z" fill="#fff"></path>
  </g>
  <g>
    <g>
      <rect x="576.25" y="403.699" width="30.55" height="50.593" rx="5.653" transform="translate(0.496 -0.683) rotate(0.066)" fill="#3EC3B5"></rect>
      <rect x="576.25" y="403.699" width="30.55" height="50.593" rx="5.653" transform="translate(0.496 -0.683) rotate(0.066)" fill="#3EC3B5"></rect>
      <path d="M657.942,448.263a6.374,6.374,0,0,0-4.3-6.363h1.069a6.471,6.471,0,0,0,6.53-6.331,6.377,6.377,0,0,0-5.048-6.281h.457a6.473,6.473,0,0,0,6.531-6.333,6.378,6.378,0,0,0-5.053-6.28,6.376,6.376,0,0,0,6.356-6.608,6.476,6.476,0,0,0-6.517-6.143l-19.493-.023h0l-4.217,0a.8.8,0,0,1-.64-1.283c4.229-5.706,4.533-8.955,4.754-16.885l0-.155a6.948,6.948,0,0,0-6.725-7.147l-.224,0a6.958,6.958,0,0,0-6.959,6.764l0,.155c-.088,3.145-.077,5.245-.471,6.349-2.689,7.536-9.985,8.744-11.588,9.105a6.586,6.586,0,0,0-4.822,4.26,10.64,10.64,0,0,0-.758,3.731v40.006c0,3.248,2.95,5.509,6.522,5.467l36.1.04h0l1.968,0A6.478,6.478,0,0,0,657.942,448.263Z" fill="#fff" opacity="0.3"></path>
    </g>
    <path d="M657.942,448.263a6.374,6.374,0,0,0-4.3-6.363h1.069a6.471,6.471,0,0,0,6.53-6.331,6.377,6.377,0,0,0-5.048-6.281h.457a6.473,6.473,0,0,0,6.531-6.333,6.378,6.378,0,0,0-5.053-6.28,6.376,6.376,0,0,0,6.356-6.608,6.476,6.476,0,0,0-6.517-6.143l-19.493-.023h0l-4.217,0a.8.8,0,0,1-.64-1.283c4.229-5.706,4.533-8.955,4.754-16.885l0-.155a6.948,6.948,0,0,0-6.725-7.147l-.224,0a6.958,6.958,0,0,0-6.959,6.764l0,.155c-.088,3.145-.077,5.245-.471,6.349-2.689,7.536-9.985,8.744-11.588,9.105a6.586,6.586,0,0,0-4.822,4.26,10.64,10.64,0,0,0-.758,3.731v40.006c0,3.248,2.95,5.509,6.522,5.467l36.1.04h0l1.968,0A6.478,6.478,0,0,0,657.942,448.263Z" fill="#3EC3B5"></path>
    <path d="M657.942,448.263a6.374,6.374,0,0,0-4.3-6.363h1.069a6.471,6.471,0,0,0,6.53-6.331,6.377,6.377,0,0,0-5.048-6.281h.457a6.473,6.473,0,0,0,6.531-6.333,6.378,6.378,0,0,0-5.053-6.28,6.376,6.376,0,0,0,6.356-6.608,6.476,6.476,0,0,0-6.517-6.143l-19.493-.023h0l-4.217,0a.8.8,0,0,1-.64-1.283c4.229-5.706,4.533-8.955,4.754-16.885l0-.155a6.948,6.948,0,0,0-6.725-7.147l-.224,0a6.958,6.958,0,0,0-6.959,6.764l0,.155c-.088,3.145-.077,5.245-.471,6.349-2.689,7.536-9.985,8.744-11.588,9.105a6.586,6.586,0,0,0-4.822,4.26,10.64,10.64,0,0,0-.758,3.731v40.006c0,3.248,2.95,5.509,6.522,5.467l36.1.04h0l1.968,0A6.478,6.478,0,0,0,657.942,448.263Z" fill="#fff" opacity="0.8"></path>
  </g>
  <g>
    <g>
      <rect x="252.111" y="177.387" width="31.773" height="52.619" rx="5.879" transform="translate(0.235 -0.309) rotate(0.066)" fill="#3EC3B5"></rect>
      <rect x="252.111" y="177.387" width="31.773" height="52.619" rx="5.879" transform="translate(0.235 -0.309) rotate(0.066)" fill="#3EC3B5"></rect>
      <path d="M337.074,223.735a6.629,6.629,0,0,0-4.474-6.618h1.111a6.731,6.731,0,0,0,6.792-6.585,6.632,6.632,0,0,0-5.25-6.532h.476a6.732,6.732,0,0,0,6.792-6.587,6.632,6.632,0,0,0-5.256-6.531,6.631,6.631,0,0,0,6.611-6.872,6.735,6.735,0,0,0-6.778-6.39l-20.273-.024h0l-4.386-.005a.834.834,0,0,1-.666-1.334c4.4-5.935,4.715-9.314,4.944-17.561l0-.162a7.229,7.229,0,0,0-7-7.433l-.233,0a7.236,7.236,0,0,0-7.238,7.034l0,.162c-.091,3.27-.079,5.454-.489,6.6-2.8,7.838-10.385,9.094-12.052,9.47A6.852,6.852,0,0,0,284.7,178.8a11.1,11.1,0,0,0-.788,3.88v41.608c0,3.378,3.068,5.73,6.784,5.686l37.544.041h0l2.047,0A6.738,6.738,0,0,0,337.074,223.735Z" fill="#fff" opacity="0.3"></path>
    </g>
    <path d="M337.074,223.735a6.629,6.629,0,0,0-4.474-6.618h1.111a6.731,6.731,0,0,0,6.792-6.585,6.632,6.632,0,0,0-5.25-6.532h.476a6.732,6.732,0,0,0,6.792-6.587,6.632,6.632,0,0,0-5.256-6.531,6.631,6.631,0,0,0,6.611-6.872,6.735,6.735,0,0,0-6.778-6.39l-20.273-.024h0l-4.386-.005a.834.834,0,0,1-.666-1.334c4.4-5.935,4.715-9.314,4.944-17.561l0-.162a7.229,7.229,0,0,0-7-7.433l-.233,0a7.236,7.236,0,0,0-7.238,7.034l0,.162c-.091,3.27-.079,5.454-.489,6.6-2.8,7.838-10.385,9.094-12.052,9.47A6.852,6.852,0,0,0,284.7,178.8a11.1,11.1,0,0,0-.788,3.88v41.608c0,3.378,3.068,5.73,6.784,5.686l37.544.041h0l2.047,0A6.738,6.738,0,0,0,337.074,223.735Z" fill="#3EC3B5"></path>
    <path d="M337.074,223.735a6.629,6.629,0,0,0-4.474-6.618h1.111a6.731,6.731,0,0,0,6.792-6.585,6.632,6.632,0,0,0-5.25-6.532h.476a6.732,6.732,0,0,0,6.792-6.587,6.632,6.632,0,0,0-5.256-6.531,6.631,6.631,0,0,0,6.611-6.872,6.735,6.735,0,0,0-6.778-6.39l-20.273-.024h0l-4.386-.005a.834.834,0,0,1-.666-1.334c4.4-5.935,4.715-9.314,4.944-17.561l0-.162a7.229,7.229,0,0,0-7-7.433l-.233,0a7.236,7.236,0,0,0-7.238,7.034l0,.162c-.091,3.27-.079,5.454-.489,6.6-2.8,7.838-10.385,9.094-12.052,9.47A6.852,6.852,0,0,0,284.7,178.8a11.1,11.1,0,0,0-.788,3.88v41.608c0,3.378,3.068,5.73,6.784,5.686l37.544.041h0l2.047,0A6.738,6.738,0,0,0,337.074,223.735Z" fill="#fff" opacity="0.8"></path>
  </g>
  <g>
    <circle cx="620.357" cy="226.898" r="35.399" fill="#3EC3B5"></circle>
    <circle cx="620.357" cy="226.898" r="35.399" fill="#fff" opacity="0.68"></circle>
    <path d="M639.42,212.945c-5.034-5.248-13.37-4.068-18.619.967l-.33.33-.356-.357c-5.139-5.146-13.478-6.5-18.624-1.366a13.169,13.169,0,0,0-.013,18.623l18.982,18.644a.078.078,0,0,0,.11,0l18.85-18.609A13.167,13.167,0,0,0,639.42,212.945Z" fill="#fff"></path>
  </g>
  <g>
    <circle cx="541.492" cy="528.439" r="35.399" fill="#3EC3B5"></circle>
    <circle cx="541.492" cy="528.439" r="35.399" fill="#fff" opacity="0.68"></circle>
    <path d="M560.555,514.486c-5.034-5.248-13.37-4.068-18.619.967l-.33.33-.356-.357c-5.139-5.146-13.477-6.505-18.624-1.366a13.169,13.169,0,0,0-.013,18.623L541.6,551.327a.078.078,0,0,0,.11,0l18.85-18.608A13.168,13.168,0,0,0,560.555,514.486Z" fill="#fff"></path>
  </g>
  <g>
    <circle cx="541.484" cy="315.355" r="32.026" fill="#3EC3B5"></circle>
    <circle cx="541.484" cy="315.355" r="32.026" fill="#fff" opacity="0.5"></circle>
    <path d="M557.868,315.3a16.385,16.385,0,0,1-32.769,0Z" fill="#fff"></path>
    <g>
      <circle cx="529.919" cy="302.502" r="2.79" fill="#0c0c0c"></circle>
      <circle cx="553.048" cy="302.502" r="2.79" fill="#0c0c0c"></circle>
    </g>
  </g>
  <circle cx="316.374" cy="103.367" r="28.253" fill="#3EC3B5"></circle>
  <circle cx="316.374" cy="103.367" r="28.253" fill="#fff" opacity="0.5"></circle>
  <path d="M330.828,103.319a14.454,14.454,0,1,1-28.908,0Z" fill="#fff"></path>
  <g>
    <circle cx="306.171" cy="92.029" r="2.461" fill="#0c0c0c"></circle>
    <circle cx="326.576" cy="92.029" r="2.461" fill="#0c0c0c"></circle>
  </g>
  <g>
    <g>
      <path d="M118.048,267.7s-2.665,32.177-10.1,43.746c-21.4,33.307-28.06,71.059-7.486,91.168s153.827,22.534,164.655-22.784c9.116-38.152-9.056-42.563-12.984-74.222-1.778-14.324-6.819-44.382-6.819-44.382" fill="#0a0a0a"></path>
      <path id="sk" d="M231.1,372.559c-.231-.03-2.783,42.33-51.994,38.637-34.068-2.552-46.215-38.7-47-38.7,3.674-.78,9.859-1.916,11.49-2.786,5.365-2.883,12-5.882,13.731-16.3,1-6-.694-36.722-.173-42.8l52.294,11.672c-.731,12.83-5.845,42.575,12.08,47.839C224.509,371,227.722,371.8,231.1,372.559Z" fill="#E98862"></path>
      <path id="sh" d="M210.18,357.971a37.849,37.849,0,0,1-1.573-8.116,86.5,86.5,0,0,1,.342-18.877,57.345,57.345,0,0,1-28.9-12.663c-.971,3.586-6.311,19.256-4.832,22.664C178.009,347.422,191.142,357.971,210.18,357.971Z" fill="#0c0c0c" opacity="0.5"></path>
      <path d="M203.506,344.375c-20.647,1.662-47.187-7.014-52.27-34.556l-4.586-24.851c-5.082-27.542,5.263-52.539,31.195-57.324h0c25.932-4.786,49.435,13.964,54.518,41.506l2.03,11C236.344,290.72,240.344,341.409,203.506,344.375Z" fill="#E98862"></path>
      <circle cx="226.633" cy="276.668" r="3.248" fill="#0c0c0c"></circle>
      <circle cx="193.767" cy="282.7" r="3.248" fill="#0c0c0c"></circle>
      <path d="M211.875,306.257l.051-.007a29.22,29.22,0,0,0,3.111-.777c1.526-.484,3.525-1.285,3.271-2.663-.289-1.569-7.713-17.708-8.558-19.543a.666.666,0,1,0-1.209.557C211.707,290.7,216.8,302,217,303.052c-.174.488-2.707,1.407-5.314,1.889a.665.665,0,0,0,.19,1.316Z" fill="#0c0c0c" opacity="0.5"></path>
      <path d="M207.985,318.12a27.188,27.188,0,0,0,11.809-4.425.665.665,0,1,0-.721-1.118c-7.65,4.935-15.233,5.7-21.928,2.225a4.419,4.419,0,0,0-.417-.2.666.666,0,0,0-.458,1.25c.053.022.14.069.261.133A19.948,19.948,0,0,0,207.985,318.12Z" fill="#0c0c0c" opacity="0.5"></path>
      <path d="M125.883,293.527l23.246-4.153c17.622-7.038,23.08-37.464,23.08-37.464s21.272,20.921,73.1,9.313c0,0-10.053-72.257-86.644-51.609-24.7,6.659-42.512,31.434-40.458,64.664C119.651,297.565,125.883,293.527,125.883,293.527Z" fill="#0a0a0a"></path>
      <path d="M154.4,317.913c-7.88,1.454-15.825-5.8-17.279-13.679s4.132-13.4,12.013-14.86l5.035,4.531,7.007,22.757Z" fill="#E98862"></path>
      <path d="M214.617,269.359a14.985,14.985,0,0,1,7.541-2.383,13.236,13.236,0,0,1,3.931.412,15.682,15.682,0,0,1,3.653,1.443.509.509,0,0,1-.447.914l-.036-.016a14.55,14.55,0,0,0-3.431-1.224,11.985,11.985,0,0,0-3.6-.257,13.628,13.628,0,0,0-6.7,2.34l-.049.034a.764.764,0,1,1-.881-1.249Z" fill="#0c0c0c"></path>
      <path d="M193.894,274.642a13.635,13.635,0,0,0-7.1.175,12.043,12.043,0,0,0-3.278,1.51,14.6,14.6,0,0,0-2.779,2.356l-.027.028a.509.509,0,0,1-.741-.7,15.633,15.633,0,0,1,2.909-2.638,13.234,13.234,0,0,1,3.533-1.773,15.005,15.005,0,0,1,7.9-.43.764.764,0,0,1-.335,1.491l-.021,0Z" fill="#0c0c0c"></path>
      <path d="M208.854,324.372a13.539,13.539,0,0,0,2.265-.444.666.666,0,0,0-.362-1.281c-4.459,1.262-6.984-.448-7.09-.521a.665.665,0,0,0-.769,1.085A9.013,9.013,0,0,0,208.854,324.372Z" fill="#0c0c0c" opacity="1"></path>
      <path d="M149.15,289l-.166-.472c15.444-5.465,20.71-15.968,22.409-23.816a38.517,38.517,0,0,0-.015-15.926l.485-.125a39.1,39.1,0,0,1,.022,16.138C170.163,272.774,164.821,283.449,149.15,289Z" fill="#0c0c0c"></path>
      <ellipse cx="190.519" cy="303.673" rx="6.187" ry="4.538" transform="translate(-30.111 21.118) rotate(-5.881)" fill="#0c0c0c" opacity="0.1"></ellipse>
      <path d="M226.99,298.819c.264,2.489,3.226,4.224,6.626,3.879a8.531,8.531,0,0,0,1.729-.363c.206-2.96.261-5.81.217-8.45a7.8,7.8,0,0,0-2.88-.216C229.282,294.015,226.736,296.319,226.99,298.819Z" fill="#0c0c0c" opacity="0.1"></path>
    </g>
    <g>
      <path d="M399.888,236.263a5.42,5.42,0,0,1,6.082-4.99,5.625,5.625,0,0,1,4.707,6.069l-.522,7.3,12.221-22.281c1.316-2.5,4.53-4.729,7.238-3.068a15.525,15.525,0,0,1,6.647,6.173c.028.011,8.3,29.3,7.081,31.624l-3.26,23.784a27.292,27.292,0,0,1-26.875,14.45l-17.417-1.745Z" fill="#E98862"></path>
      <g opacity="0.2">
        <path d="M420.341,247.583a.5.5,0,0,0,.668-.205l11.595-21.2a.5.5,0,0,0-.878-.479l-11.6,21.2a.5.5,0,0,0,.2.679Z" fill="#0c0c0c"></path>
      </g>
    </g>
    <path d="M419.369,481.018a37.538,37.538,0,0,1-7.106-.679L235.092,446.147,249.3,372.505l132.566,25.584V273.57h75V443.518a37.5,37.5,0,0,1-37.5,37.5Z" fill="#3EC3B5"></path>
    <polygon points="66.51 624.245 57.605 678.533 279.704 678.533 271.402 623.917 66.51 624.245" fill="#262626"></polygon>
    <path id="b_1_b" d="M177.972,400.669c-34.092-1.607-35.527-30.544-35.527-30.544s-16.892,1.092-28.122,2.611c-18.384,2.487-30.512,8.721-40.163,18.373-8.978,8.978-14.444,18.692-8.66,80.71,4.188,44.906,1.01,152.426,1.01,152.426l204.892-.328s19.118-137.883,20.837-158.1c3.283-38.589-3.712-71.211-11.724-79.223-16.471-16.471-44.828-16.471-58.988-16.469C221.3,370.127,224.4,402.857,177.972,400.669Z" fill="#3EC3B5"></path>
    <path d="M295.145,456.676a.544.544,0,0,1-.057,0,.5.5,0,0,1-.441-.552l3.228-28.839a.5.5,0,0,1,1,.112l-3.229,28.838A.5.5,0,0,1,295.145,456.676Z" fill="#0c0c0c"></path>
    <path d="M197.716,499.4l26.372-21.854a5.418,5.418,0,0,1,7.81.944,5.625,5.625,0,0,1-1.13,7.6l-5.635,4.67-26.522,13.736Z" fill="#E98862"></path>
    <path d="M255.639,531.39,219.5,524.009l15.022-34.577,36.137,7.381Z" fill="#3EC3B5"></path>
    <g>
      <path d="M225.133,490.752l24.547-6.574c2.716-.779,6.548,0,7.22,3.108a5.418,5.418,0,0,1-2.585,6.23.408.408,0,0,1,.033.074.454.454,0,0,1,0,.063l4.189-1.2a5.424,5.424,0,0,1,6.9,4.776,5.55,5.55,0,0,1-4.106,5.7l-1.783.511a.481.481,0,0,1-.057.166,5.418,5.418,0,0,1,5.557,4.2,5.625,5.625,0,0,1-4.083,6.5l-4.382,1.256a.5.5,0,0,1,.316.331.485.485,0,0,1-.015.278,5.422,5.422,0,0,1,4.222,4.848,5.552,5.552,0,0,1-4.106,5.7l-37.357,10.706A27.291,27.291,0,0,1,190.625,528l-10.781-13.79Z" fill="#E98862"></path>
      <g opacity="0.2">
        <path d="M230.05,500.144a.5.5,0,0,0,.609.342L254,494.2a.5.5,0,0,0-.261-.966L230.4,499.52a.5.5,0,0,0-.353.613Z" fill="#0c0c0c"></path>
      </g>
      <g opacity="0.2">
        <path d="M232.536,510.513a.5.5,0,0,0,.61.341l26.043-7.011a.5.5,0,0,0,.353-.613.518.518,0,0,0-.613-.353l-26.043,7.011a.5.5,0,0,0-.353.613Z" fill="#0c0c0c"></path>
      </g>
      <g opacity="0.2">
        <path d="M235.165,521.758a.5.5,0,0,0,.61.342l20.774-5.593a.5.5,0,1,0-.26-.965l-20.774,5.592a.5.5,0,0,0-.353.613Z" fill="#0c0c0c"></path>
      </g>
    </g>
    <path d="M216.792,547.123,47.127,596.1a37.5,37.5,0,0,1-43.9-51.449l57.844-137.8c6.189-19.913,39.769-38.359,58.7-29.96s18.258,41.441,9.86,60.373L94.841,509.726,200.629,485.27Z" fill="#3EC3B5"></path>
    <path d="M67.255,590.788a.5.5,0,0,1-.138-.981l149.067-43.03-15.916-60.911L94.953,510.213a.5.5,0,0,1-.5-.175.5.5,0,0,1-.061-.529l34.781-72.465a.5.5,0,0,1,.9.433L95.743,509l104.774-24.222a.5.5,0,0,1,.6.361L217.275,547a.5.5,0,0,1-.345.607L67.394,590.768A.513.513,0,0,1,67.255,590.788Z" fill="#0c0c0c"></path>
    <path d="M77.375,514.024a.5.5,0,0,1-.105-.989l17.465-3.8a.5.5,0,0,1,.213.978l-17.465,3.8A.489.489,0,0,1,77.375,514.024Z" fill="#0c0c0c"></path>
    <g>
      <rect x="412.194" y="178.647" width="21.793" height="89.667" rx="6.324" transform="matrix(0.992, -0.126, 0.126, 0.992, -24.736, 54.955)" fill="#292a2e"></rect>
      <rect x="368.374" y="145.413" width="65.481" height="62.687" rx="31.343" transform="matrix(0.992, -0.126, 0.126, 0.992, -19.037, 51.822)" fill="#0cbc8b"></rect>
      <path d="M502.307,183.2l-5.994,2.576-5.038-39.762,6.262.481c.278,5.641.8,11.585,1.575,17.713C499.956,170.87,501.04,177.254,502.307,183.2Z" fill="#3EC3B5"></path>
      <path d="M520.622,161.485c.989,7.807.16,14.341-1.847,14.6a1.522,1.522,0,0,1-1.232-.569l0,0c-1.684-1.68-3.4-6.852-4.191-13.1-.736-5.8-.467-10.9.546-13.243.348-.806.785-1.284,1.3-1.349C517.2,147.56,519.633,153.681,520.622,161.485Z" fill="#3EC3B5"></path>
      <path d="M499.126,164.337l-.015-.13c-3.212-25.35,1.3-52.495,5.73-62.711-16.3,15.2-39.728,30.417-61.374,36.085-8.735,2.287-19.387,4.259-35.528,6.285l7.987,63.038c16.137-2.064,26.944-2.81,35.973-2.774,22.375.09,48.863,8.981,68.434,19.637-6.834-8.789-17.977-33.95-21.189-59.3Z" fill="#0cbc8b"></path>
      <rect x="397.765" y="139.67" width="38.272" height="69.916" rx="2.298" transform="translate(-18.644 53.789) rotate(-7.221)" fill="#292a2e"></rect>
      <rect x="397.765" y="139.67" width="38.272" height="69.916" rx="2.298" transform="translate(-18.644 53.789) rotate(-7.221)" fill="#fff" opacity="0.1"></rect>
      <path d="M530.885,160.181c4.32,34.1.7,62.633-8.066,63.744-1.747.222-3.564-.658-5.379-2.486-.01,0-.011-.009-.021-.007-7.357-7.341-14.85-29.929-18.308-57.225-3.212-25.35-2.039-47.623,2.387-57.839,1.521-3.522,3.425-5.61,5.679-5.895C515.945,99.362,526.566,126.093,530.885,160.181Z" fill="#0cbc8b"></path>
      <path d="M530.885,160.181c4.32,34.1.7,62.633-8.066,63.744-1.747.222-3.564-.658-5.379-2.486-.01,0-.011-.009-.021-.007-7.357-7.341-14.85-29.929-18.308-57.225-3.212-25.35-2.039-47.623,2.387-57.839,1.521-3.522,3.425-5.61,5.679-5.895C515.945,99.362,526.566,126.093,530.885,160.181Z" fill="#0c0c0c" opacity="0.3"></path>
      <path d="M515.2,147.852l3.582,28.266L502.307,183.2c-1.267-5.946-2.351-12.33-3.195-18.992-.776-6.128-1.3-12.072-1.575-17.713Z" fill="#fff" opacity="0.6"></path>
      <path d="M520.622,161.485c.989,7.807.16,14.341-1.847,14.6a1.522,1.522,0,0,1-1.232-.569l0,0c-1.684-1.68-3.4-6.852-4.191-13.1-.736-5.8-.467-10.9.546-13.243.348-.806.785-1.284,1.3-1.349C517.2,147.56,519.633,153.681,520.622,161.485Z" fill="#fff"></path>
    </g>
    <path d="M419.861,250.379a4.437,4.437,0,0,1,3.23-4.277c-.034-.071-.163-.22-.037-.27l-3.647-.646a4.517,4.517,0,0,1-3.825-4.539,4.351,4.351,0,0,1,4.121-4.131c-.025-.035-.017-.084-.03-.126l-1.5-.266a4.458,4.458,0,0,1-3.754-4.211,4.357,4.357,0,0,1,5.115-4.39l3.457.612c0-.019-.015-.033-.012-.052s.029-.038.036-.06a4.35,4.35,0,0,1-2.6-4.766c.278-2.536,3.275-3.48,5.51-3.084l6.946,1.795a6.717,6.717,0,0,1,4.663,4.3c3.143,9.05,10.789,32.881,3.654,31.617l-17.566-3.112A4.717,4.717,0,0,1,419.861,250.379Z" fill="#E98862"></path>
  </g>
  <g>
    <circle cx="588.437" cy="79.875" r="35.482" fill="#3EC3B5"></circle>
    <g>
      <circle cx="588.437" cy="79.875" r="35.482" fill="#fff" opacity="0.5"></circle>
      <path d="M606.59,79.814a18.153,18.153,0,1,1-36.305,0Z" fill="#fff"></path>
      <g>
        <circle cx="575.624" cy="65.635" r="3.091" fill="#0c0c0c"></circle>
        <circle cx="601.25" cy="65.635" r="3.091" fill="#0c0c0c"></circle>
      </g>
    </g>
  </g>
  <g>
    <path d="M812.978,548.286a1,1,0,0,1-.707-.293c-1.409-1.409-3.706-27.262-9.893-104.234-2.53-31.488-4.921-61.229-6.665-79.3-.125-1.291-.626-1.442-.79-1.491-2.393-.724-9.652,5.007-13.708,10.022a1,1,0,1,1-1.554-1.257c2.68-3.317,11.417-12.009,15.837-10.681.891.268,2,1.042,2.2,3.214,1.747,18.092,4.137,47.841,6.669,79.337,3.76,46.775,8.019,99.766,9.418,103.1a1,1,0,0,1-.812,1.584Z" fill="#494949"></path>
    <ellipse cx="775.382" cy="375.472" rx="38.507" ry="28.398" transform="translate(-64.461 567.46) rotate(-38.715)" fill="#0cbc8b"></ellipse>
    <ellipse cx="775.382" cy="375.472" rx="38.507" ry="28.398" transform="translate(-64.461 567.46) rotate(-38.715)" fill="#fff" opacity="0.2"></ellipse>
    <path d="M749.989,402.665a.5.5,0,0,1-.385-.82L796.9,344.817a.5.5,0,1,1,.769.638l-47.291,57.029A.5.5,0,0,1,749.989,402.665Z" fill="#fff"></path>
    <path d="M823.292,536.06a1,1,0,0,1-.944-1.329l17.764-51.087A9.5,9.5,0,0,1,855.64,479.9l9.392,8.971a1,1,0,0,1-1.381,1.446l-9.392-8.971A7.5,7.5,0,0,0,842,484.3l-17.763,51.087A1,1,0,0,1,823.292,536.06Z" fill="#494949"></path>
    <ellipse cx="867.372" cy="486.954" rx="28.398" ry="38.507" transform="translate(-114.953 643.468) rotate(-38.363)" fill="#0cbc8b"></ellipse>
    <path d="M804.908,545.028a1,1,0,0,1-.972-.768L774.125,419.616a4.751,4.751,0,0,0-8.212-2l-9.189,10.619a1,1,0,0,1-1.512-1.308L764.4,416.3a6.75,6.75,0,0,1,11.669,2.847L805.881,543.8a1,1,0,0,1-.74,1.2A1.036,1.036,0,0,1,804.908,545.028Z" fill="#494949"></path>
    <ellipse cx="765.927" cy="451.081" rx="38.507" ry="28.398" transform="translate(190.934 1128.947) rotate(-80.189)" fill="#0cbc8b"></ellipse>
    <path d="M812.979,548.286a1.029,1.029,0,0,1-.123-.008,1,1,0,0,1-.87-1.114l19.037-154.558a8.806,8.806,0,0,1,15.341-4.752L868.121,412.5a1,1,0,1,1-1.5,1.323l-21.757-24.642a6.806,6.806,0,0,0-11.857,3.672L813.97,547.408A1,1,0,0,1,812.979,548.286Z" fill="#494949"></path>
    <ellipse cx="856.741" cy="407.553" rx="28.398" ry="38.507" transform="translate(85.422 959.977) rotate(-61.051)" fill="#0cbc8b"></ellipse>
    <ellipse cx="867.372" cy="486.954" rx="28.398" ry="38.507" transform="translate(-114.953 643.468) rotate(-38.363)" fill="#fff" opacity="0.2"></ellipse>
    <ellipse cx="765.927" cy="451.081" rx="38.507" ry="28.398" transform="translate(190.934 1128.947) rotate(-80.189)" fill="#fff" opacity="0.5"></ellipse>
    <ellipse cx="856.741" cy="407.553" rx="28.398" ry="38.507" transform="translate(85.422 959.977) rotate(-61.051)" fill="#fff" opacity="0.5"></ellipse>
    <polygon points="837.326 679.427 788.63 679.427 780.561 523.623 845.396 523.623 837.326 679.427" fill="#292a2e"></polygon>
    <polygon points="837.326 679.427 788.63 679.427 780.561 523.623 845.396 523.623 837.326 679.427" fill="#fff" opacity="0.3"></polygon>
    <path d="M891.271,517.647a.5.5,0,0,1-.392-.189l-47.8-60.387a.5.5,0,0,1,.784-.621l47.8,60.387a.5.5,0,0,1-.081.7A.494.494,0,0,1,891.271,517.647Z" fill="#fff"></path>
    <path d="M887.258,431.03a.5.5,0,0,1-.3-.1L825.8,386.271a.5.5,0,1,1,.59-.807l61.166,44.662a.5.5,0,0,1-.295.9Z" fill="#fff"></path>
    <path d="M756.883,488.378a.482.482,0,0,1-.129-.017.5.5,0,0,1-.354-.612L775.871,414.8a.5.5,0,0,1,.967.258l-19.471,72.953A.5.5,0,0,1,756.883,488.378Z" fill="#fff"></path>
  </g>
  <path d="M34.892,680.72H897.605a1,1,0,0,0,0-2H34.892a1,1,0,0,0,0,2Z" fill="#262626"></path>
</svg>